<?xml version="1.0" standalone="no"?>
<!DOCTYPE svg PUBLIC "-//W3C//DTD SVG 20010904//EN"
 "http://www.w3.org/TR/2001/REC-SVG-20010904/DTD/svg10.dtd">
<svg version="1.0" xmlns="http://www.w3.org/2000/svg"
 width="624.000000pt" height="624.000000pt" viewBox="0 0 624.000000 624.000000"
 preserveAspectRatio="xMidYMid meet">
<metadata>
Created by potrace 1.11, written by Peter Selinger 2001-2013
</metadata>
<g transform="translate(0.000000,624.000000) scale(0.100000,-0.100000)"
fill="#000000" stroke="none">
<path d="M2640 6044 c-300 -107 -556 -199 -570 -204 -14 -4 -83 -29 -155 -55
-71 -26 -166 -59 -210 -75 -44 -15 -195 -70 -335 -120 -140 -51 -273 -98 -295
-106 -117 -38 -259 -94 -276 -110 -26 -23 -26 -85 0 -108 11 -10 217 -88 458
-175 l437 -156 1 -203 c0 -112 -3 -209 -7 -215 -6 -9 -12 -9 -28 1 -27 17 -26
3 6 -60 16 -31 27 -72 28 -100 2 -26 1 -48 0 -48 -2 0 -49 18 -105 40 -56 23
-103 39 -105 38 -1 -2 22 -41 52 -87 30 -47 53 -89 51 -95 -5 -14 -89 -34
-219 -52 -15 -2 -60 -10 -100 -19 -40 -8 -77 -15 -82 -15 -6 0 -6 -4 0 -10 5
-5 57 -19 114 -31 58 -12 107 -23 108 -24 3 -3 -197 -71 -233 -80 -5 -1 -17
-4 -25 -7 -8 -3 -36 -13 -62 -22 -79 -29 -79 -39 1 -81 39 -21 71 -41 71 -45
0 -10 -50 -25 -120 -35 -19 -2 -44 -6 -55 -9 -11 -2 -54 -9 -95 -15 -133 -21
-127 -17 -88 -51 18 -16 36 -30 40 -30 4 0 13 -6 20 -12 22 -21 86 -68 93 -68
8 0 55 -51 55 -61 0 -14 -45 -43 -128 -83 -45 -22 -78 -44 -75 -49 4 -6 1 -7
-6 -3 -12 8 -154 -56 -195 -87 -18 -13 -13 -16 57 -39 l76 -24 -62 -36 c-34
-19 -80 -46 -102 -58 -22 -13 -53 -31 -70 -41 -16 -10 -47 -28 -67 -39 -21
-11 -38 -23 -38 -25 0 -3 52 -2 115 1 70 4 115 3 115 -3 0 -10 -63 -72 -202
-196 -49 -44 -88 -83 -88 -88 0 -10 54 -36 87 -43 10 -1 25 -6 33 -9 8 -3 37
-13 63 -23 26 -9 49 -20 51 -23 3 -3 -69 -58 -159 -121 -110 -77 -160 -117
-151 -122 8 -4 73 -10 146 -13 73 -2 135 -6 136 -8 2 -2 -38 -34 -88 -72 l-93
-69 70 -18 c39 -10 80 -18 92 -18 36 0 18 -23 -70 -92 -45 -34 -88 -68 -95
-75 -8 -7 -23 -18 -34 -24 -11 -6 -18 -13 -15 -15 2 -3 58 15 123 40 160 59
168 61 159 45 -5 -8 -38 -57 -74 -109 -36 -52 -79 -115 -95 -140 -16 -25 -33
-47 -36 -50 -3 -3 -21 -27 -38 -54 l-33 -48 43 6 c24 3 86 15 138 26 52 12
115 24 140 27 l44 6 -34 -45 c-19 -25 -63 -81 -98 -123 -35 -43 -61 -79 -59
-82 3 -2 40 12 82 32 43 20 84 35 91 33 13 -3 7 -20 -82 -204 -63 -133 -67
-144 -46 -144 9 0 42 7 72 16 137 39 196 54 213 54 16 0 17 -8 12 -82 -4 -46
-8 -93 -10 -106 -2 -13 -7 -53 -11 -90 -3 -37 -12 -104 -18 -149 -7 -46 -11
-83 -9 -83 2 0 29 28 61 62 86 93 111 118 117 118 3 0 3 -15 0 -32 -8 -58 -15
-121 -21 -212 -7 -85 -6 -88 12 -78 10 6 54 45 96 86 43 42 79 76 81 76 2 0 3
-15 1 -32 -9 -81 -10 -168 -3 -168 4 0 33 22 65 49 32 28 59 49 60 48 2 -1 6
-29 9 -62 4 -33 9 -69 11 -80 3 -11 7 -40 9 -65 16 -151 40 -270 54 -270 15 0
39 35 101 148 35 62 64 111 66 110 3 -4 8 -27 24 -123 27 -154 21 -140 65
-138 22 1 91 13 152 26 l113 23 24 -35 c14 -20 37 -63 51 -95 l26 -59 35 57
c20 31 38 56 40 56 3 0 2 -36 -2 -80 -3 -44 -5 -80 -2 -80 5 0 140 58 276 118
l113 51 10 -27 c41 -110 42 -112 55 -101 7 6 29 35 49 65 20 30 39 54 42 54 5
0 -5 -132 -13 -167 -14 -56 12 -41 122 68 l113 113 -2 -85 c0 -46 1 -84 4 -84
3 0 56 42 118 94 62 51 114 91 117 88 2 -2 7 -26 10 -53 2 -27 8 -52 13 -57 5
-5 44 25 87 66 96 91 147 137 154 137 3 0 36 -50 73 -110 38 -61 72 -110 77
-110 10 0 83 75 108 111 9 13 25 33 35 44 l18 20 15 -20 c9 -11 40 -64 71
-118 l55 -99 49 77 c27 42 56 89 63 104 29 56 37 55 112 -4 37 -30 74 -55 80
-55 7 0 53 36 104 81 87 77 92 80 110 64 18 -16 48 -75 85 -165 23 -56 32 -67
45 -54 9 9 32 127 45 233 4 30 8 62 10 72 2 9 7 38 10 62 l7 46 51 -67 c28
-37 61 -76 72 -88 12 -11 35 -38 53 -60 l32 -39 0 149 0 149 101 -127 c56 -70
103 -125 105 -124 2 3 15 251 17 336 1 24 12 11 52 -58 22 -39 43 -70 48 -70
4 0 7 -6 7 -13 0 -7 16 -33 37 -56 45 -53 49 -47 58 74 3 50 8 110 10 135 3
25 8 77 11 115 3 39 7 79 9 90 2 11 4 22 4 24 1 3 22 -26 48 -63 54 -79 54
-79 73 59 16 120 18 132 25 155 6 20 6 20 33 0 15 -11 47 -38 71 -60 25 -22
46 -39 47 -37 2 2 11 68 19 152 8 76 15 118 20 123 4 5 22 -6 120 -71 32 -22
61 -35 66 -30 17 17 -27 144 -126 363 -29 63 -51 117 -49 118 2 3 111 -74 124
-88 18 -20 222 -171 226 -168 5 5 -78 243 -116 333 -26 61 -60 169 -55 174 4
3 75 -29 158 -71 84 -42 154 -75 156 -73 3 4 -174 258 -212 305 -30 36 -56 90
-44 90 7 0 57 -16 112 -35 54 -19 101 -33 103 -30 3 3 -59 102 -220 348 -26
40 -47 76 -47 80 -1 10 27 2 89 -25 25 -11 59 -27 77 -34 45 -20 93 -28 93
-16 0 22 -81 127 -205 268 -178 201 -175 195 -113 200 18 1 78 5 133 9 55 4
107 9 115 11 8 1 20 3 26 3 7 1 -71 84 -172 185 -101 101 -184 186 -184 189 0
3 46 6 103 7 56 1 108 2 116 3 17 1 -15 25 -76 57 -86 44 -233 132 -239 142
-3 5 -4 12 -1 14 5 5 84 17 190 29 68 7 89 14 82 26 -6 9 -121 45 -170 52 -52
9 -62 17 -69 58 -3 21 -5 42 -4 46 1 5 54 24 117 44 188 59 188 59 -24 53
l-190 -5 0 65 c1 65 1 66 43 97 44 32 51 46 29 55 -14 5 -84 12 -134 13 l-33
1 0 559 0 558 58 21 c31 11 111 39 177 63 155 54 192 90 163 154 -13 30 -42
42 -473 195 -187 67 -401 143 -475 170 -74 27 -225 81 -335 120 -271 97 -457
163 -600 215 -405 146 -504 179 -550 182 -44 3 -116 -20 -595 -193z m2425
-1384 l0 -380 -25 -1 c-14 0 -32 -2 -40 -4 -8 -1 -46 -5 -85 -9 -38 -4 -89 -9
-112 -12 -41 -6 -43 -5 -43 21 0 27 19 49 133 148 31 27 57 53 57 57 0 5 -44
-7 -97 -26 -54 -18 -98 -34 -98 -34 0 0 1 115 1 256 1 140 4 257 5 259 6 5
283 104 294 104 7 1 10 -131 10 -379z m-1 -552 c-1 -46 -2 -87 -3 -91 -1 -9
-171 -5 -171 5 0 9 164 176 170 172 3 -1 5 -40 4 -86z"/>
</g>
</svg>
